<svg id="Layer_1" data-name="Layer 1" xmlns="http://www.w3.org/2000/svg" xmlns:xlink="http://www.w3.org/1999/xlink" viewBox="0 0 100 100"><defs><style>.cls-1{fill:#231f20;}.cls-2,.cls-3,.cls-4,.cls-5,.cls-6,.cls-7{fill-rule:evenodd;}.cls-2{fill:url(#linear-gradient);}.cls-3{fill:url(#linear-gradient-2);}.cls-4{fill:url(#linear-gradient-3);}.cls-5{fill:url(#linear-gradient-4);}.cls-6{fill:url(#linear-gradient-5);}.cls-7{fill:url(#linear-gradient-7);}</style><linearGradient id="linear-gradient" x1="-130.77" y1="76.24" x2="231.29" y2="76.24" gradientUnits="userSpaceOnUse"><stop offset="0.05" stop-color="#e6b964"/><stop offset="0.22" stop-color="#b98841"/><stop offset="0.24" stop-color="#b4833e"/><stop offset="0.48" stop-color="#f8e889"/><stop offset="0.57" stop-color="#f6e284"/><stop offset="0.69" stop-color="#f0d177"/><stop offset="0.8" stop-color="#e8ba65"/><stop offset="1" stop-color="#b5843f"/></linearGradient><linearGradient id="linear-gradient-2" x1="-130.77" y1="35.06" x2="231.29" y2="35.06" xlink:href="#linear-gradient"/><linearGradient id="linear-gradient-3" x1="-130.77" y1="51.45" x2="231.29" y2="51.45" xlink:href="#linear-gradient"/><linearGradient id="linear-gradient-4" x1="-130.77" y1="61.15" x2="231.29" y2="61.15" xlink:href="#linear-gradient"/><linearGradient id="linear-gradient-5" x1="-130.77" y1="51.44" x2="231.29" y2="51.44" xlink:href="#linear-gradient"/><linearGradient id="linear-gradient-7" x1="-130.77" y1="35.12" x2="231.29" y2="35.12" xlink:href="#linear-gradient"/></defs><rect class="cls-1" width="100" height="100"/><path class="cls-2" d="M73.25,75a138.54,138.54,0,0,0-51.08.87l.93,3.61c2-.41,4.07-.78,6.12-1.08a136.17,136.17,0,0,1,20.86-1.59,140,140,0,0,1,15.31.84q5.86.66,11.66,1.82l.47-2.81.29-.8C76.3,75.53,74.79,75.24,73.25,75Z"/><path class="cls-3" d="M67.66,39.52c-1.35-3.86-5.19-6.07-9-4.09-4.55,2.35-6.22,9-6.89,11.21a37.72,37.72,0,0,1,1.1-8c.87-3.11,3.1-6.85,2.26-9.6s-2.5-5.36-5.11-8.5c-2.61,3.14-4.28,5.79-5.1,8.5s1.37,6.49,2.24,9.6a36.45,36.45,0,0,1,1.1,8c-.66-2.16-2.34-8.86-6.87-11.21-3.84-2-7.68.23-9,4.09s-.18,9.2,7.46,10c-4.33-6.24-1.44-8.38-.47-8.58,2.08-.41,5.13,1.73,7.15,7.58h7c2-5.85,5.07-8,7.15-7.58,1,.2,3.86,2.34-.47,8.58C67.83,48.72,69,43.46,67.66,39.52Z"/><path class="cls-4" d="M54.43,49.68h-8.7a1.8,1.8,0,0,0-1.25.52,1.77,1.77,0,0,0,1.25,3h8.7a1.73,1.73,0,0,0,1.23-.52,1.76,1.76,0,0,0-1.23-3Z"/><path class="cls-5" d="M81.78,54.41c-.9,1.54-3.26,5.79-6.09,5.79H69.75l4.5-4.51L71.59,53l-2.66-2.67-5.32,5.33,4.5,4.51H57.49A3.76,3.76,0,0,1,54.26,58a7.65,7.65,0,0,1-.86-3.52H46.59a7.69,7.69,0,0,1-.78,3.38,3.82,3.82,0,0,1-3.3,2.36H31.89l.93-.93.91-.92,2.66-2.66-5.32-5.33L28.41,53l-2.67,2.66,2.67,2.66,1.51,1.53.32.32H24.31c-2.84,0-5.2-4.25-6.11-5.79H15l3.31,8.95,2.33,6.29.84,2.28a132.65,132.65,0,0,1,15.09-2.32Q43.16,69,50,69c2.54,0,5,.06,7.55.2a135.71,135.71,0,0,1,20.92,2.77L79,70.63l2.34-6.31L85,54.42ZM24.87,69.86A2.1,2.1,0,1,1,27,67.56a1.34,1.34,0,0,1,0,.2A2.1,2.1,0,0,1,24.87,69.86Zm8.38-1.19a2.09,2.09,0,0,1-2.1-2.1.23.23,0,0,1,0-.11,2.08,2.08,0,0,1,2.08-2,2.05,2.05,0,0,1,1.88,1.19,1.87,1.87,0,0,1,.22.9A2.09,2.09,0,0,1,33.25,68.67Zm8.39-.76a2.1,2.1,0,0,1-2.09-2.1,2,2,0,0,1,.16-.8,2.08,2.08,0,0,1,1.93-1.29,2.12,2.12,0,0,1,1.76,1,2.05,2.05,0,0,1,.33,1.14A2.09,2.09,0,0,1,41.64,67.91ZM50,67.5a2.1,2.1,0,0,1-2.1-2.1,2,2,0,0,1,.2-.89,2.1,2.1,0,0,1,3.83.06,2.05,2.05,0,0,1,.17.83A2.1,2.1,0,0,1,50,67.5Zm8.39.5a2.12,2.12,0,0,1-2.11-2.11,2.2,2.2,0,0,1,.25-1,2.13,2.13,0,0,1,1.86-1.1,2.09,2.09,0,0,1,2,1.59,1.63,1.63,0,0,1,.07.5A2.11,2.11,0,0,1,58.42,68Zm10.37-.86a2.07,2.07,0,0,1-2,1.46,2.1,2.1,0,0,1-2.1-2.1c0-.11,0-.22,0-.33a2.1,2.1,0,0,1,4.17.33A2,2,0,0,1,68.79,67.14Zm7.53,2.44a2.14,2.14,0,0,1-1.13.33,2.08,2.08,0,0,1-2-1.45,2.27,2.27,0,0,1-.1-.65,2.1,2.1,0,1,1,4.19,0A2.12,2.12,0,0,1,76.32,69.58Z"/><path class="cls-6" d="M17.53,49.7H13.38l1.25,3.47H19A1.1,1.1,0,0,0,20.18,52,2.68,2.68,0,0,0,17.53,49.7Z"/><path class="cls-6" d="M82.47,49.7A2.68,2.68,0,0,0,79.82,52,1.1,1.1,0,0,0,81,53.17h4.39l1.24-3.47Z"/><path class="cls-7" d="M18.52,34.63c-3.65.56-5,5.35-4.6,11.73a39.46,39.46,0,0,1-1.55-7.82c-.25-3.22.31-6.51-.42-8.19-1.1-2.61-6.14-7.58-9.45-9.78L13,48.8l4-.36c-.81-6.55,2.72-7.7,3.69-7.5s4.84,2.39,2.54,8.72c2.9.05,4.71-.94,5.46-2.6C31,41.61,24,33.77,18.52,34.63Z"/><path class="cls-7" d="M88,30.35c-.71,1.68-.15,5-.4,8.19a39.36,39.36,0,0,1-1.56,7.82c.42-6.38-.94-11.17-4.59-11.73C76,33.77,69,41.61,71.39,47.06c.74,1.66,2.56,2.65,5.45,2.6-2.3-6.33,1.57-8.52,2.53-8.72s4.5,1,3.7,7.5l4,.36L97.5,20.57C94.19,22.77,89.14,27.74,88,30.35Z"/></svg>